<?xml version="1.0" encoding="utf-8"?>
<!-- Generator: Adobe Illustrator 17.1.0, SVG Export Plug-In . SVG Version: 6.00 Build 0)  -->
<!DOCTYPE svg PUBLIC "-//W3C//DTD SVG 1.1//EN" "http://www.w3.org/Graphics/SVG/1.1/DTD/svg11.dtd">
<svg version="1.1" id="Layer_1" xmlns="http://www.w3.org/2000/svg" xmlns:xlink="http://www.w3.org/1999/xlink" x="0px" y="0px"
	 viewBox="0 0 1487.343 855.487" enable-background="new 0 0 1487.343 855.487" xml:space="preserve">
<g>
	<polygon id="triangle36_3220_" fill="#7AB2C8" points="829.464,346.208 1042.74,222.803 842.292,118.497 	"/>
	<polygon id="triangle36_3219_" fill="#1D80A8" points="829.464,346.208 842.292,118.497 726.834,168.447 	"/>
	<polygon id="triangle36_3218_" fill="#1D80A8" points="778.149,692.917 811.824,474.02 699.573,593.017 	"/>
	<polygon id="triangle36_3217_" fill="#7AB2C8" points="726.834,168.447 842.292,118.497 643.448,94.992 	"/>
	<polygon id="triangle36_3216_" fill="#4E9CBA" points="643.448,94.992 842.292,118.497 577.701,-7.845 	"/>
	<polygon id="triangle36_3215_" fill="#4E9CBA" points="1312.142,698.793 1414.771,578.326 1233.565,570.981 	"/>
	<polygon id="triangle36_3214_" fill="#1D80A8" points="1233.565,570.981 1414.771,578.326 1304.123,349.146 	"/>
	<polygon id="triangle36_3213_" fill="#1D80A8" points="194.445,259.531 266.606,413.787 19.654,472.55 	"/>
	<polygon id="triangle36_3212_" fill="#4E9CBA" points="106.248,669.411 266.606,413.787 19.654,472.55 	"/>
	<polygon id="triangle36_3211_" fill="#1D80A8" points="1233.565,570.981 1312.142,698.793 1156.594,689.978 	"/>
	<polygon id="triangle36_3210_" fill="#7AB2C8" points="74.176,147.879 194.445,259.531 223.309,-10.784 	"/>
	<polygon id="triangle36_3209_" fill="#4E9CBA" points="699.573,593.017 811.824,474.02 532.8,519.562 	"/>
	<polygon id="triangle36_3208_" fill="#4E9CBA" points="194.445,259.531 266.606,413.787 460.639,199.298 	"/>
	<polygon id="triangle36_3207_" fill="#1D80A8" points="577.701,-7.845 643.448,94.992 460.639,199.298 	"/>
	<polygon id="triangle36_3206_" fill="#1D80A8" points="74.176,147.879 223.309,-10.784 -17.228,-10.784 	"/>
	<polygon id="triangle36_3205_" fill="#4E9CBA" points="19.654,472.55 194.445,259.531 -22.039,269.815 	"/>
	<polygon id="triangle36_3204_" fill="#7AB2C8" points="-20.435,446.107 19.654,472.55 -22.039,269.815 	"/>
	<polygon id="triangle36_3203_" fill="#4E9CBA" points="-17.228,-10.784 74.176,147.879 -22.039,269.815 	"/>
	<polygon id="triangle36_3202_" fill="#1D80A8" points="74.176,147.879 194.445,259.531 -22.039,269.815 	"/>
	<polygon id="triangle36_3201_" fill="#4E9CBA" points="194.445,259.531 223.309,-10.784 364.424,86.177 	"/>
	<polygon id="triangle36_3200_" fill="#7AB2C8" points="194.445,259.531 460.639,199.298 364.424,86.177 	"/>
	<polygon id="triangle36_3199_" fill="#1D80A8" points="223.309,-10.784 577.701,-7.845 364.424,86.177 	"/>
	<polygon id="triangle36_3198_" fill="#4E9CBA" points="460.639,199.298 577.701,-7.845 364.424,86.177 	"/>
	<polygon id="triangle36_3197_" fill="#7AB2C8" points="1042.74,222.803 1304.123,349.146 1207.909,130.25 	"/>
	<polygon id="triangle36_3196_" fill="#7AB2C8" points="577.701,-7.845 842.292,118.497 968.974,45.042 	"/>
	<polygon id="triangle36_3195_" fill="#4E9CBA" points="577.701,-7.845 1151.783,-12.253 968.974,45.042 	"/>
	<polygon id="triangle36_3194_" fill="#1D80A8" points="842.292,118.497 1042.74,222.803 968.974,45.042 	"/>
	<polygon id="triangle36_3193_" fill="#4E9CBA" points="1042.74,222.803 1207.909,130.25 968.974,45.042 	"/>
	<polygon id="triangle36_3192_" fill="#1D80A8" points="1151.783,-12.253 1207.909,130.25 968.974,45.042 	"/>
	<polygon id="triangle36_3191_" fill="#4E9CBA" points="1207.909,130.25 1304.123,349.146 1400.339,219.865 	"/>
	<polygon id="triangle36_3190_" fill="#1D80A8" points="1304.123,349.146 1400.339,219.865 1510.985,247.778 	"/>
	<polygon id="triangle36_3189_" fill="#4E9CBA" points="1400.339,219.865 1509.382,-7.845 1510.985,247.778 	"/>
	<polygon id="triangle36_3188_" fill="#7AB2C8" points="1304.123,349.146 1414.771,578.326 1507.779,491.649 	"/>
	<polygon id="triangle36_3187_" fill="#4E9CBA" points="1304.123,349.146 1510.985,247.778 1507.779,491.649 	"/>
	
		<linearGradient id="triangle36_1_" gradientUnits="userSpaceOnUse" x1="-356.3888" y1="923.2612" x2="-354.8591" y2="921.7314" gradientTransform="matrix(2 0 0 -419 2221 386991.125)">
		<stop  offset="0" style="stop-color:#0C4A5B"/>
		<stop  offset="1" style="stop-color:#1C5676"/>
	</linearGradient>
	<polygon id="triangle36_3186_" fill="url(#triangle36_1_)" points="1509.382,863.332 1510.985,247.778 1507.779,491.649 	"/>
	<polygon id="triangle36_3185_" fill="#4E9CBA" points="1312.142,698.793 1368.267,866.271 1506.175,669.411 	"/>
	<polygon id="triangle36_3184_" fill="#1D80A8" points="1312.142,698.793 1414.771,578.326 1506.175,669.411 	"/>
	<polygon id="triangle36_3183_" fill="#1D80A8" points="1368.267,866.271 1509.382,863.332 1506.175,669.411 	"/>
	<polygon id="triangle36_3182_" fill="#4E9CBA" points="1414.771,578.326 1507.779,491.649 1506.175,669.411 	"/>
	
		<linearGradient id="triangle36_2_" gradientUnits="userSpaceOnUse" x1="-356.9093" y1="924.7328" x2="-355.3519" y2="923.1753" gradientTransform="matrix(2 0 0 -253 2220 234437.3125)">
		<stop  offset="0" style="stop-color:#126074"/>
		<stop  offset="1" style="stop-color:#08525E"/>
	</linearGradient>
	<polygon id="triangle36_3181_" fill="url(#triangle36_2_)" points="1507.779,491.649 1509.382,863.332 1506.175,669.411 	"/>
	<polygon id="triangle36_3180_" fill="#7AB2C8" points="778.149,692.917 811.824,474.02 946.524,570.981 	"/>
	<polygon id="triangle36_3179_" fill="#1D80A8" points="778.149,692.917 981.803,866.271 946.524,570.981 	"/>
	<polygon id="triangle36_3178_" fill="#7AB2C8" points="981.803,866.271 1156.594,689.978 946.524,570.981 	"/>
	<polygon id="triangle36_3177_" fill="#4E9CBA" points="1156.594,689.978 1233.565,570.981 946.524,570.981 	"/>
	<polygon id="triangle36_3176_" fill="#7AB2C8" points="811.824,474.02 829.464,346.208 1076.415,382.936 	"/>
	<polygon id="triangle36_3175_" fill="#4E9CBA" points="811.824,474.02 946.524,570.981 1076.415,382.936 	"/>
	<polygon id="triangle36_3174_" fill="#1D80A8" points="829.464,346.208 1042.74,222.803 1076.415,382.936 	"/>
	<polygon id="triangle36_3173_" fill="#1D80A8" points="946.524,570.981 1233.565,570.981 1076.415,382.936 	"/>
	<polygon id="triangle36_3172_" fill="#4E9CBA" points="1042.74,222.803 1304.123,349.146 1076.415,382.936 	"/>
	<polygon id="triangle36_3171_" fill="#7AB2C8" points="1233.565,570.981 1304.123,349.146 1076.415,382.936 	"/>
	<polygon id="triangle36_3170_" fill="#1D80A8" points="532.8,519.562 699.573,593.017 497.521,681.163 	"/>
	<polygon id="triangle36_3169_" fill="#7AB2C8" points="699.573,593.017 778.149,692.917 497.521,681.163 	"/>
	<polygon id="triangle36_3168_" fill="#7AB2C8" points="-23.643,864.801 106.248,669.411 175.201,866.271 	"/>
	<polygon id="triangle36_3167_" fill="#4E9CBA" points="175.201,866.271 507.143,867.739 316.317,676.756 	"/>
	<polygon id="triangle36_3166_" fill="#7AB2C8" points="497.521,681.163 507.143,867.739 316.317,676.756 	"/>
	<polygon id="triangle36_3165_" fill="#1D80A8" points="106.248,669.411 175.201,866.271 316.317,676.756 	"/>
	<polygon id="triangle36_3164_" fill="#7AB2C8" points="106.248,669.411 266.606,413.787 316.317,676.756 	"/>
	<polygon id="triangle36_3163_" fill="#1D80A8" points="497.521,681.163 507.143,867.739 760.509,788.408 	"/>
	<polygon id="triangle36_3162_" fill="#4E9CBA" points="497.521,681.163 778.149,692.917 760.509,788.408 	"/>
	<polygon id="triangle36_3161_" fill="#7AB2C8" points="507.143,867.739 981.803,866.271 760.509,788.408 	"/>
	<polygon id="triangle36_3160_" fill="#4E9CBA" points="778.149,692.917 981.803,866.271 760.509,788.408 	"/>
	<polygon id="triangle36_3159_" fill="#4E9CBA" points="266.606,413.787 316.317,676.756 402.91,463.737 	"/>
	<polygon id="triangle36_3158_" fill="#1D80A8" points="266.606,413.787 460.639,199.298 402.91,463.737 	"/>
	<polygon id="triangle36_3157_" fill="#1D80A8" points="316.317,676.756 497.521,681.163 402.91,463.737 	"/>
	<polygon id="triangle36_3156_" fill="#7AB2C8" points="497.521,681.163 532.8,519.562 402.91,463.737 	"/>
	<polygon id="triangle36_3155_" fill="#1D80A8" points="981.803,866.271 1156.594,689.978 1230.359,759.026 	"/>
	<polygon id="triangle36_3154_" fill="#4E9CBA" points="981.803,866.271 1368.267,866.271 1230.359,759.026 	"/>
	<polygon id="triangle36_3153_" fill="#4E9CBA" points="1156.594,689.978 1312.142,698.793 1230.359,759.026 	"/>
	<polygon id="triangle36_3152_" fill="#1D80A8" points="1312.142,698.793 1368.267,866.271 1230.359,759.026 	"/>
	<polygon id="triangle36_3151_" fill="#7AB2C8" points="402.91,463.737 460.639,199.298 624.205,262.469 	"/>
	<polygon id="triangle36_3150_" fill="#4E9CBA" points="402.91,463.737 532.8,519.562 624.205,262.469 	"/>
	<polygon id="triangle36_3149_" fill="#4E9CBA" points="460.639,199.298 643.448,94.992 624.205,262.469 	"/>
	<polygon id="triangle36_3148_" fill="#7AB2C8" points="532.8,519.562 811.824,474.02 624.205,262.469 	"/>
	<polygon id="triangle36_3147_" fill="#1D80A8" points="643.448,94.992 726.834,168.447 624.205,262.469 	"/>
	<polygon id="triangle36_3146_" fill="#4E9CBA" points="726.834,168.447 829.464,346.208 624.205,262.469 	"/>
	<polygon id="triangle36_3145_" fill="#1D80A8" points="811.824,474.02 829.464,346.208 624.205,262.469 	"/>
	<polygon id="triangle36_3144_" fill="#4E9CBA" points="-23.643,864.801 106.248,669.411 -22.039,594.486 	"/>
	<polygon id="triangle36_3143_" fill="#1D80A8" points="19.654,472.55 106.248,669.411 -22.039,594.486 	"/>
	
		<linearGradient id="triangle36_3_" gradientUnits="userSpaceOnUse" x1="-909.2046" y1="925.5185" x2="-907.6485" y2="923.9624" gradientTransform="matrix(1 0 0 -221 887 204846.0625)">
		<stop  offset="0" style="stop-color:#45150E"/>
		<stop  offset="1" style="stop-color:#3E140F"/>
	</linearGradient>
	<polygon id="triangle36_3142_" fill="url(#triangle36_3_)" points="-22.039,269.815 -20.435,446.107 -22.039,594.486 	"/>
	<polygon id="triangle36_3141_" fill="#4E9CBA" points="-20.435,446.107 19.654,472.55 -22.039,594.486 	"/>
	<polygon id="triangle36_3140_" fill="#4E9CBA" points="1151.783,-12.253 1207.909,130.25 1339.402,-7.845 	"/>
	
		<linearGradient id="triangle36_4_" gradientUnits="userSpaceOnUse" x1="-380.5143" y1="1368.6276" x2="-378.9779" y2="1367.0912" gradientTransform="matrix(223 0 0 -3 85978.9609 4094)">
		<stop  offset="0" style="stop-color:#243463"/>
		<stop  offset="1" style="stop-color:#23204C"/>
	</linearGradient>
	<polygon id="triangle36_3139_" fill="url(#triangle36_4_)" points="1151.783,-12.253 1509.382,-7.845 1339.402,-7.845 	"/>
	<polygon id="triangle36_3138_" fill="#1D80A8" points="1207.909,130.25 1400.339,219.865 1339.402,-7.845 	"/>
	<polygon id="triangle36_3137_" fill="#7AB2C8" points="1400.339,219.865 1509.382,-7.845 1339.402,-7.845 	"/>
</g>
</svg>
