<?xml version="1.0" encoding="utf-8"?>
<!-- Generator: Adobe Illustrator 17.1.0, SVG Export Plug-In . SVG Version: 6.00 Build 0)  -->
<!DOCTYPE svg PUBLIC "-//W3C//DTD SVG 1.1//EN" "http://www.w3.org/Graphics/SVG/1.1/DTD/svg11.dtd">
<svg version="1.1" id="Layer_1" xmlns="http://www.w3.org/2000/svg" xmlns:xlink="http://www.w3.org/1999/xlink" x="0px" y="0px"
	 viewBox="0 0 1487.343 855.487" enable-background="new 0 0 1487.343 855.487" xml:space="preserve">
<g>
	<polygon id="triangle36_3220_" fill="#7AB2C8" points="827.065,347.519 1033.831,227.881 839.502,126.759 	"/>
	<polygon id="triangle36_3219_" fill="#1D80A8" points="827.065,347.519 839.502,126.759 727.569,175.184 	"/>
	<polygon id="triangle36_3218_" fill="#1D80A8" points="777.317,683.644 809.964,471.43 701.14,586.794 	"/>
	<polygon id="triangle36_3217_" fill="#7AB2C8" points="727.569,175.184 839.502,126.759 646.728,103.971 	"/>
	<polygon id="triangle36_3216_" fill="#4E9CBA" points="646.728,103.971 839.502,126.759 582.988,4.273 	"/>
	<polygon id="triangle36_3215_" fill="#4E9CBA" points="1295.01,689.341 1394.506,572.552 1218.832,565.431 	"/>
	<polygon id="triangle36_3214_" fill="#1D80A8" points="1218.832,565.431 1394.506,572.552 1287.237,350.367 	"/>
	<polygon id="triangle36_3213_" fill="#1D80A8" points="211.43,263.488 281.389,413.035 41.975,470.005 	"/>
	<polygon id="triangle36_3212_" fill="#4E9CBA" points="125.925,660.856 281.389,413.035 41.975,470.005 	"/>
	<polygon id="triangle36_3211_" fill="#1D80A8" points="1218.832,565.431 1295.01,689.341 1144.21,680.796 	"/>
	<polygon id="triangle36_3210_" fill="#7AB2C8" points="94.833,155.244 211.43,263.488 239.414,1.424 	"/>
	<polygon id="triangle36_3209_" fill="#4E9CBA" points="701.14,586.794 809.964,471.43 539.458,515.582 	"/>
	<polygon id="triangle36_3208_" fill="#4E9CBA" points="211.43,263.488 281.389,413.035 469.499,205.093 	"/>
	<polygon id="triangle36_3207_" fill="#1D80A8" points="582.988,4.273 646.728,103.971 469.499,205.093 	"/>
	<polygon id="triangle36_3206_" fill="#1D80A8" points="94.833,155.244 239.414,1.424 6.219,1.424 	"/>
	<polygon id="triangle36_3205_" fill="#4E9CBA" points="41.975,470.005 211.43,263.488 1.555,273.458 	"/>
	<polygon id="triangle36_3204_" fill="#7AB2C8" points="3.109,444.369 41.975,470.005 1.555,273.458 	"/>
	<polygon id="triangle36_3203_" fill="#4E9CBA" points="6.219,1.424 94.833,155.244 1.555,273.458 	"/>
	<polygon id="triangle36_3202_" fill="#1D80A8" points="94.833,155.244 211.43,263.488 1.555,273.458 	"/>
	<polygon id="triangle36_3201_" fill="#4E9CBA" points="211.43,263.488 239.414,1.424 376.221,95.425 	"/>
	<polygon id="triangle36_3200_" fill="#7AB2C8" points="211.43,263.488 469.499,205.093 376.221,95.425 	"/>
	<polygon id="triangle36_3199_" fill="#1D80A8" points="239.414,1.424 582.988,4.273 376.221,95.425 	"/>
	<polygon id="triangle36_3198_" fill="#4E9CBA" points="469.499,205.093 582.988,4.273 376.221,95.425 	"/>
	<polygon id="triangle36_3197_" fill="#7AB2C8" points="1033.831,227.881 1287.237,350.367 1193.959,138.153 	"/>
	<polygon id="triangle36_3196_" fill="#7AB2C8" points="582.988,4.273 839.502,126.759 962.318,55.546 	"/>
	<polygon id="triangle36_3195_" fill="#4E9CBA" points="582.988,4.273 1139.546,0 962.318,55.546 	"/>
	<polygon id="triangle36_3194_" fill="#1D80A8" points="839.502,126.759 1033.831,227.881 962.318,55.546 	"/>
	<polygon id="triangle36_3193_" fill="#4E9CBA" points="1033.831,227.881 1193.959,138.153 962.318,55.546 	"/>
	<polygon id="triangle36_3192_" fill="#1D80A8" points="1139.546,0 1193.959,138.153 962.318,55.546 	"/>
	<polygon id="triangle36_3191_" fill="#4E9CBA" points="1193.959,138.153 1287.237,350.367 1380.515,225.033 	"/>
	<polygon id="triangle36_3190_" fill="#1D80A8" points="1287.237,350.367 1380.515,225.033 1487.784,252.094 	"/>
	<polygon id="triangle36_3189_" fill="#4E9CBA" points="1380.515,225.033 1486.23,4.273 1487.784,252.094 	"/>
	<polygon id="triangle36_3188_" fill="#7AB2C8" points="1287.237,350.367 1394.506,572.552 1484.675,488.52 	"/>
	<polygon id="triangle36_3187_" fill="#4E9CBA" points="1287.237,350.367 1487.784,252.094 1484.675,488.52 	"/>
	
		<linearGradient id="triangle36_1_" gradientUnits="userSpaceOnUse" x1="-367.9473" y1="923.2434" x2="-366.4642" y2="921.7603" gradientTransform="matrix(2 0 0 -419 2221 386991.125)">
		<stop  offset="0" style="stop-color:#0C4A5B"/>
		<stop  offset="1" style="stop-color:#1C5676"/>
	</linearGradient>
	<polygon id="triangle36_3186_" fill="url(#triangle36_1_)" points="1486.23,848.858 1487.784,252.094 1484.675,488.52 	"/>
	<polygon id="triangle36_3185_" fill="#4E9CBA" points="1295.01,689.341 1349.422,851.707 1483.12,660.856 	"/>
	<polygon id="triangle36_3184_" fill="#1D80A8" points="1295.01,689.341 1394.506,572.552 1483.12,660.856 	"/>
	<polygon id="triangle36_3183_" fill="#1D80A8" points="1349.422,851.707 1486.23,848.858 1483.12,660.856 	"/>
	<polygon id="triangle36_3182_" fill="#4E9CBA" points="1394.506,572.552 1484.675,488.52 1483.12,660.856 	"/>
	
		<linearGradient id="triangle36_2_" gradientUnits="userSpaceOnUse" x1="-368.4366" y1="924.7437" x2="-366.9267" y2="923.2338" gradientTransform="matrix(2 0 0 -253 2220 234437.3125)">
		<stop  offset="0" style="stop-color:#126074"/>
		<stop  offset="1" style="stop-color:#08525E"/>
	</linearGradient>
	<polygon id="triangle36_3181_" fill="url(#triangle36_2_)" points="1484.675,488.52 1486.23,848.858 1483.12,660.856 	"/>
	<polygon id="triangle36_3180_" fill="#7AB2C8" points="777.317,683.644 809.964,471.43 940.553,565.431 	"/>
	<polygon id="triangle36_3179_" fill="#1D80A8" points="777.317,683.644 974.755,851.707 940.553,565.431 	"/>
	<polygon id="triangle36_3178_" fill="#7AB2C8" points="974.755,851.707 1144.21,680.796 940.553,565.431 	"/>
	<polygon id="triangle36_3177_" fill="#4E9CBA" points="1144.21,680.796 1218.832,565.431 940.553,565.431 	"/>
	<polygon id="triangle36_3176_" fill="#7AB2C8" points="809.964,471.43 827.065,347.519 1066.479,383.126 	"/>
	<polygon id="triangle36_3175_" fill="#4E9CBA" points="809.964,471.43 940.553,565.431 1066.479,383.126 	"/>
	<polygon id="triangle36_3174_" fill="#1D80A8" points="827.065,347.519 1033.831,227.881 1066.479,383.126 	"/>
	<polygon id="triangle36_3173_" fill="#1D80A8" points="940.553,565.431 1218.832,565.431 1066.479,383.126 	"/>
	<polygon id="triangle36_3172_" fill="#4E9CBA" points="1033.831,227.881 1287.237,350.367 1066.479,383.126 	"/>
	<polygon id="triangle36_3171_" fill="#7AB2C8" points="1218.832,565.431 1287.237,350.367 1066.479,383.126 	"/>
	<polygon id="triangle36_3170_" fill="#1D80A8" points="539.458,515.582 701.14,586.794 505.256,672.25 	"/>
	<polygon id="triangle36_3169_" fill="#7AB2C8" points="701.14,586.794 777.317,683.644 505.256,672.25 	"/>
	<polygon id="triangle36_3168_" fill="#7AB2C8" points="0,850.282 125.925,660.856 192.775,851.707 	"/>
	<polygon id="triangle36_3167_" fill="#4E9CBA" points="192.775,851.707 514.584,853.131 329.582,667.977 	"/>
	<polygon id="triangle36_3166_" fill="#7AB2C8" points="505.256,672.25 514.584,853.131 329.582,667.977 	"/>
	<polygon id="triangle36_3165_" fill="#1D80A8" points="125.925,660.856 192.775,851.707 329.582,667.977 	"/>
	<polygon id="triangle36_3164_" fill="#7AB2C8" points="125.925,660.856 281.389,413.035 329.582,667.977 	"/>
	<polygon id="triangle36_3163_" fill="#1D80A8" points="505.256,672.25 514.584,853.131 760.216,776.221 	"/>
	<polygon id="triangle36_3162_" fill="#4E9CBA" points="505.256,672.25 777.317,683.644 760.216,776.221 	"/>
	<polygon id="triangle36_3161_" fill="#7AB2C8" points="514.584,853.131 974.755,851.707 760.216,776.221 	"/>
	<polygon id="triangle36_3160_" fill="#4E9CBA" points="777.317,683.644 974.755,851.707 760.216,776.221 	"/>
	<polygon id="triangle36_3159_" fill="#4E9CBA" points="281.389,413.035 329.582,667.977 413.532,461.46 	"/>
	<polygon id="triangle36_3158_" fill="#1D80A8" points="281.389,413.035 469.499,205.093 413.532,461.46 	"/>
	<polygon id="triangle36_3157_" fill="#1D80A8" points="329.582,667.977 505.256,672.25 413.532,461.46 	"/>
	<polygon id="triangle36_3156_" fill="#7AB2C8" points="505.256,672.25 539.458,515.582 413.532,461.46 	"/>
	<polygon id="triangle36_3155_" fill="#1D80A8" points="974.755,851.707 1144.21,680.796 1215.723,747.736 	"/>
	<polygon id="triangle36_3154_" fill="#4E9CBA" points="974.755,851.707 1349.422,851.707 1215.723,747.736 	"/>
	<polygon id="triangle36_3153_" fill="#4E9CBA" points="1144.21,680.796 1295.01,689.341 1215.723,747.736 	"/>
	<polygon id="triangle36_3152_" fill="#1D80A8" points="1295.01,689.341 1349.422,851.707 1215.723,747.736 	"/>
	<polygon id="triangle36_3151_" fill="#7AB2C8" points="413.532,461.46 469.499,205.093 628.072,266.336 	"/>
	<polygon id="triangle36_3150_" fill="#4E9CBA" points="413.532,461.46 539.458,515.582 628.072,266.336 	"/>
	<polygon id="triangle36_3149_" fill="#4E9CBA" points="469.499,205.093 646.728,103.971 628.072,266.336 	"/>
	<polygon id="triangle36_3148_" fill="#7AB2C8" points="539.458,515.582 809.964,471.43 628.072,266.336 	"/>
	<polygon id="triangle36_3147_" fill="#1D80A8" points="646.728,103.971 727.569,175.184 628.072,266.336 	"/>
	<polygon id="triangle36_3146_" fill="#4E9CBA" points="727.569,175.184 827.065,347.519 628.072,266.336 	"/>
	<polygon id="triangle36_3145_" fill="#1D80A8" points="809.964,471.43 827.065,347.519 628.072,266.336 	"/>
	<polygon id="triangle36_3144_" fill="#4E9CBA" points="0,850.282 125.925,660.856 1.555,588.218 	"/>
	<polygon id="triangle36_3143_" fill="#1D80A8" points="41.975,470.005 125.925,660.856 1.555,588.218 	"/>
	
		<linearGradient id="triangle36_3_" gradientUnits="userSpaceOnUse" x1="-885.6058" y1="925.5071" x2="-884.0972" y2="923.9985" gradientTransform="matrix(1 0 0 -221 887 204846.0625)">
		<stop  offset="0" style="stop-color:#45150E"/>
		<stop  offset="1" style="stop-color:#3E140F"/>
	</linearGradient>
	<polygon id="triangle36_3142_" fill="url(#triangle36_3_)" points="1.555,273.458 3.109,444.369 1.555,588.218 	"/>
	<polygon id="triangle36_3141_" fill="#4E9CBA" points="3.109,444.369 41.975,470.005 1.555,588.218 	"/>
	<polygon id="triangle36_3140_" fill="#4E9CBA" points="1139.546,0 1193.959,138.153 1321.439,4.273 	"/>
	
		<linearGradient id="triangle36_4_" gradientUnits="userSpaceOnUse" x1="-380.5654" y1="1364.5471" x2="-379.0759" y2="1363.0576" gradientTransform="matrix(223 0 0 -3 85978.9609 4094)">
		<stop  offset="0" style="stop-color:#243463"/>
		<stop  offset="1" style="stop-color:#23204C"/>
	</linearGradient>
	<polygon id="triangle36_3139_" fill="url(#triangle36_4_)" points="1139.546,0 1486.23,4.273 1321.439,4.273 	"/>
	<polygon id="triangle36_3138_" fill="#1D80A8" points="1193.959,138.153 1380.515,225.033 1321.439,4.273 	"/>
	<polygon id="triangle36_3137_" fill="#7AB2C8" points="1380.515,225.033 1486.23,4.273 1321.439,4.273 	"/>
</g>
</svg>
