<?xml version="1.0" encoding="utf-8"?>
<!-- Generator: Adobe Illustrator 18.0.0, SVG Export Plug-In . SVG Version: 6.00 Build 0)  -->
<!DOCTYPE svg PUBLIC "-//W3C//DTD SVG 1.1//EN" "http://www.w3.org/Graphics/SVG/1.1/DTD/svg11.dtd">
<svg version="1.1" id="Layer_1" xmlns="http://www.w3.org/2000/svg" xmlns:xlink="http://www.w3.org/1999/xlink" x="0px" y="0px"
	 viewBox="0 0 901 1032" enable-background="new 0 0 901 1032" xml:space="preserve">
<g>
	<g>
		<g>
			<g>
				<g>
					<defs>
						<rect id="SVGID_1_" x="234.4" y="39.2" width="444.6" height="433.4"/>
					</defs>
					<clipPath id="SVGID_2_">
						<use xlink:href="#SVGID_1_"  overflow="visible"/>
					</clipPath>
					<rect x="234.4" y="39.2" clip-path="url(#SVGID_2_)" fill="#C0DEDE" width="444.6" height="433.4"/>
					<g clip-path="url(#SVGID_2_)">
						<rect x="254.3" y="57.6" fill="#62B1B9" width="404.8" height="240.2"/>
						<rect x="254.3" y="305.7" fill="#62B1B9" width="127.7" height="112.8"/>
						<rect x="254.3" y="426.5" fill="#62B1B9" width="265.8" height="112.8"/>
						<rect x="392.9" y="305.7" fill="#62B1B9" width="127.7" height="112.8"/>
						<rect x="531.5" y="305.7" fill="#62B1B9" width="127.7" height="112.8"/>
						<rect x="531.5" y="426.5" fill="#62B1B9" width="127.7" height="112.8"/>
					</g>
				</g>
				<rect x="268.8" y="96.9" fill="#AED5D7" width="319.8" height="48.9"/>
				<rect x="268.8" y="153.5" fill="#AED5D7" width="241.2" height="48.9"/>
				<rect x="268.8" y="211.5" fill="#AED5D7" width="280.3" height="20.6"/>
				<rect x="268.8" y="240.8" fill="#AED5D7" width="280.3" height="20.6"/>
			</g>
			<g>
				<rect x="234.4" y="0" fill="#279AA0" width="444.6" height="38.5"/>
				<g>
					<circle fill="#AED5D7" cx="648.6" cy="18.7" r="7.2"/>
					<circle fill="#AED5D7" cx="623.9" cy="18.7" r="7.2"/>
					<circle fill="#AED5D7" cx="599.2" cy="18.7" r="7.2"/>
				</g>
			</g>
		</g>
		<g>
			<g>
				<g>
					<defs>
						<rect id="SVGID_3_" x="0" y="122" width="444.6" height="433.4"/>
					</defs>
					<clipPath id="SVGID_4_">
						<use xlink:href="#SVGID_3_"  overflow="visible"/>
					</clipPath>
					<rect x="0" y="122" clip-path="url(#SVGID_4_)" fill="#C0DEDE" width="444.6" height="433.4"/>
					<g clip-path="url(#SVGID_4_)">
						<rect x="19.9" y="140.4" fill="#62B1B9" width="404.8" height="240.2"/>
						<rect x="19.9" y="388.5" fill="#62B1B9" width="127.7" height="112.8"/>
						<rect x="19.9" y="509.3" fill="#62B1B9" width="265.8" height="112.8"/>
						<rect x="158.5" y="388.5" fill="#62B1B9" width="127.7" height="112.8"/>
						<rect x="297.1" y="388.5" fill="#62B1B9" width="127.7" height="112.8"/>
						<rect x="297.1" y="509.3" fill="#62B1B9" width="127.7" height="112.8"/>
					</g>
				</g>
				<rect x="34.4" y="179.7" fill="#AED5D7" width="319.8" height="48.9"/>
				<rect x="34.4" y="236.3" fill="#AED5D7" width="241.2" height="48.9"/>
				<rect x="34.4" y="294.4" fill="#AED5D7" width="280.3" height="20.6"/>
				<rect x="34.4" y="323.7" fill="#AED5D7" width="280.3" height="20.6"/>
			</g>
			<g>
				<rect x="0" y="82.8" fill="#279AA0" width="444.6" height="38.5"/>
				<g>
					<circle fill="#AED5D7" cx="414.2" cy="101.5" r="7.2"/>
					<circle fill="#AED5D7" cx="389.5" cy="101.5" r="7.2"/>
					<circle fill="#AED5D7" cx="364.8" cy="101.5" r="7.2"/>
				</g>
			</g>
		</g>
		<g>
			<g>
				<defs>
					<rect id="SVGID_5_" x="456.3" y="122" width="444.6" height="433.4"/>
				</defs>
				<clipPath id="SVGID_6_">
					<use xlink:href="#SVGID_5_"  overflow="visible"/>
				</clipPath>
				<rect x="455.8" y="122" clip-path="url(#SVGID_6_)" fill="#C0DEDE" width="444.6" height="433.4"/>
				<rect x="468.7" y="144.2" clip-path="url(#SVGID_6_)" fill="#62B1B9" width="419.9" height="57.3"/>
				<rect x="468.7" y="368.2" clip-path="url(#SVGID_6_)" fill="#62B1B9" width="419.9" height="63.5"/>
				<rect x="468.7" y="445.6" clip-path="url(#SVGID_6_)" fill="#62B1B9" width="419.9" height="109.7"/>
				<rect x="468.1" y="213.5" clip-path="url(#SVGID_6_)" fill="#62B1B9" width="261.2" height="144.9"/>
				<rect x="742" y="213.5" clip-path="url(#SVGID_6_)" fill="#62B1B9" width="145.3" height="144.9"/>
			</g>
			<rect x="479.7" y="157.1" fill="#AED5D7" width="155.2" height="32.2"/>
			<circle fill="#AED5D7" cx="816.1" cy="255.7" r="31.1"/>
			<g>
				<rect x="766" y="301.2" fill="#AED5D7" width="100.2" height="5.7"/>
				<rect x="766" y="310.2" fill="#AED5D7" width="91.8" height="5.7"/>
				<rect x="766" y="337.3" fill="#AED5D7" width="91.8" height="5.7"/>
				<rect x="766" y="328.3" fill="#AED5D7" width="89.1" height="5.7"/>
				<rect x="766" y="319.2" fill="#AED5D7" width="98.2" height="5.7"/>
			</g>
			<rect x="484.4" y="258.4" fill="#AED5D7" width="225.5" height="27.4"/>
			<rect x="519.2" y="296.3" fill="#AED5D7" width="155.9" height="27.4"/>
			<g>
				<rect x="456.3" y="82.8" fill="#279AA0" width="444.6" height="38.5"/>
				<g>
					<circle fill="#AED5D7" cx="870.5" cy="101.5" r="7.2"/>
					<circle fill="#AED5D7" cx="845.8" cy="101.5" r="7.2"/>
					<circle fill="#AED5D7" cx="821.1" cy="101.5" r="7.2"/>
				</g>
			</g>
		</g>
	</g>
	<polygon fill="#FE896E" points="618.8,492 645.8,492 598.8,410.8 551.9,492 578.8,492 578.8,597.2 478.5,662.9 478.6,384 
		505.8,384 458.8,302.8 411.9,384 438.6,384 438.4,743.4 308.9,646.1 309.5,543 337.8,543 290.8,461.8 243.9,543 269.5,543 
		268.8,666 438.4,793.4 438.3,1032 478.3,1032 478.5,710.7 618.8,618.8 	"/>
</g>
</svg>
