<?xml version="1.0" encoding="utf-8"?>
<!-- Generator: Adobe Illustrator 17.1.0, SVG Export Plug-In . SVG Version: 6.00 Build 0)  -->
<!DOCTYPE svg PUBLIC "-//W3C//DTD SVG 1.1//EN" "http://www.w3.org/Graphics/SVG/1.1/DTD/svg11.dtd">
<svg version="1.1" id="Layer_1" xmlns="http://www.w3.org/2000/svg" xmlns:xlink="http://www.w3.org/1999/xlink" x="0px" y="0px"
	 viewBox="0 0 873.087 873.087" enable-background="new 0 0 873.087 873.087" xml:space="preserve">
<g display="none">
	<path display="inline" fill="#FFFFFF" d="M-3149.396,205.348c-13.355,0-25.912-5.201-35.355-14.645
		c-9.444-9.444-14.645-22-14.645-35.355c0-13.355,5.201-25.912,14.645-35.355c9.444-9.444,22-14.645,35.355-14.645
		s25.912,5.201,35.355,14.645c9.444,9.444,14.645,22,14.645,35.355c0,13.355-5.201,25.912-14.645,35.355
		C-3123.485,200.147-3136.041,205.348-3149.396,205.348z M-3149.396,106.514c-13.044,0-25.307,5.08-34.531,14.303
		c-9.224,9.223-14.303,21.487-14.303,34.531s5.08,25.307,14.303,34.531c9.223,9.224,21.487,14.303,34.531,14.303
		s25.307-5.08,34.531-14.303c9.224-9.223,14.303-21.487,14.303-34.531s-5.08-25.307-14.303-34.531
		C-3124.089,111.593-3136.352,106.514-3149.396,106.514z M-3148.813,190.359v-37.51c0-0.322-0.261-0.583-0.583-0.583
		s-0.583,0.261-0.583,0.583v37.51c0,0.322,0.261,0.583,0.583,0.583S-3148.813,190.681-3148.813,190.359z M-3138.101,178.812
		c0.214-0.24,0.194-0.609-0.047-0.823c-0.24-0.214-0.608-0.194-0.823,0.047l-10.425,11.676l-10.425-11.676
		c-0.215-0.24-0.583-0.261-0.823-0.047c-0.24,0.214-0.261,0.583-0.047,0.823l10.83,12.13h0.93L-3138.101,178.812z
		 M-3161.731,128.664h-3.336c-0.329,0-0.608-0.263-0.608-0.592c0-0.329,0.279-0.608,0.608-0.608h7.987
		c0.329,0,0.608,0.279,0.608,0.608c0,0.329-0.279,0.592-0.608,0.592h-3.336v9.729c0,0.362-0.296,0.657-0.657,0.657
		s-0.657-0.296-0.657-0.657V128.664z M-3156.241,138.114l4.667-10.206c0.164-0.362,0.411-0.575,0.822-0.575h0.066
		c0.394,0,0.657,0.214,0.805,0.575l4.667,10.189c0.049,0.115,0.082,0.23,0.082,0.329c0,0.345-0.279,0.624-0.625,0.624
		c-0.312,0-0.526-0.214-0.641-0.477l-1.2-2.646h-6.311l-1.2,2.679c-0.115,0.279-0.329,0.444-0.625,0.444
		c-0.329,0-0.592-0.263-0.592-0.592C-3156.323,138.36-3156.307,138.245-3156.241,138.114z M-3148.106,134.745l-2.646-5.883
		l-2.646,5.883H-3148.106z M-3142.65,128.122c0-0.362,0.296-0.657,0.641-0.657h4.306c1.413,0,2.547,0.427,3.27,1.15
		c0.559,0.559,0.888,1.364,0.888,2.268v0.033c0,1.89-1.282,2.991-3.073,3.336l2.859,3.681c0.132,0.148,0.214,0.296,0.214,0.477
		c0,0.345-0.329,0.641-0.657,0.641c-0.263,0-0.46-0.148-0.608-0.345l-3.237-4.207h-3.303v3.895c0,0.362-0.296,0.657-0.657,0.657
		c-0.345,0-0.641-0.296-0.641-0.657V128.122z M-3137.818,133.331c1.726,0,2.958-0.887,2.958-2.367v-0.033
		c0-1.413-1.084-2.268-2.942-2.268h-3.55v4.667H-3137.818z"/>
	<path display="inline" fill="#FFFFFF" d="M-2992.573,205.348c-13.355,0-25.912-5.201-35.355-14.645
		c-9.444-9.444-14.645-22-14.645-35.355c0-13.355,5.201-25.912,14.645-35.355c9.444-9.444,22-14.645,35.355-14.645
		s25.912,5.201,35.355,14.645c9.444,9.444,14.645,22,14.645,35.355c0,13.355-5.201,25.912-14.645,35.355
		C-2966.662,200.147-2979.218,205.348-2992.573,205.348z M-2992.573,106.514c-13.044,0-25.307,5.08-34.531,14.303
		s-14.303,21.487-14.303,34.531s5.08,25.307,14.303,34.531s21.487,14.303,34.531,14.303c13.044,0,25.307-5.08,34.531-14.303
		c9.224-9.224,14.303-21.487,14.303-34.531s-5.08-25.307-14.303-34.531S-2979.529,106.514-2992.573,106.514z M-2991.99,190.359
		v-37.51c0-0.322-0.261-0.583-0.583-0.583c-0.322,0-0.583,0.261-0.583,0.583v37.51c0,0.322,0.261,0.583,0.583,0.583
		C-2992.251,190.942-2991.99,190.681-2991.99,190.359z M-2981.278,178.812c0.214-0.24,0.193-0.609-0.047-0.823
		c-0.24-0.214-0.609-0.194-0.823,0.047l-10.425,11.676l-10.426-11.676c-0.215-0.241-0.583-0.261-0.823-0.047
		c-0.24,0.214-0.261,0.583-0.046,0.823l10.83,12.13h0.93L-2981.278,178.812z M-3005.047,138.409v-0.033
		c0-0.23,0.082-0.394,0.23-0.575l7.215-9.17h-6.672c-0.329,0-0.592-0.263-0.592-0.575c0-0.329,0.263-0.592,0.592-0.592h7.839
		c0.312,0,0.592,0.263,0.592,0.559v0.033c0,0.23-0.082,0.394-0.23,0.575l-7.215,9.17h6.935c0.329,0,0.592,0.263,0.592,0.575
		c0,0.329-0.263,0.592-0.592,0.592h-8.086C-3004.768,138.968-3005.047,138.705-3005.047,138.409z M-2993.017,128.039
		c0-0.362,0.296-0.657,0.641-0.657c0.362,0,0.657,0.296,0.657,0.657v10.354c0,0.362-0.296,0.657-0.657,0.657
		c-0.345,0-0.641-0.296-0.641-0.657V128.039z M-2988.35,128.122c0-0.362,0.296-0.657,0.641-0.657h3.665
		c2.597,0,4.306,1.381,4.306,3.648v0.033c0,2.482-2.071,3.763-4.52,3.763h-2.794v3.484c0,0.362-0.296,0.657-0.657,0.657
		c-0.345,0-0.641-0.296-0.641-0.657V128.122z M-2984.208,133.726c1.906,0,3.155-1.019,3.155-2.531v-0.033
		c0-1.643-1.232-2.498-3.09-2.498h-2.909v5.062H-2984.208z"/>
</g>
<g>
	<circle fill="#4F9DBB" cx="-1633.042" cy="416.544" r="436.544"/>
	<path fill="#1C81A8" d="M-1363.428,286.579l-16.381,16.668l-16.947-16.655l7.413-7.543l-99.072-97.369l-4.698,4.779
		c-52.663-46.325-177.798-27.199-177.798-27.199s109.642,46.173,111.451,94.707l-2.716,2.764l29.108,28.608l-91.119,92.712
		l-11.393-11.197l-242.105,246.339l63.641,62.547l242.105-246.339l-11.393-11.197l91.119-92.712l29.108,28.608l7.413-7.543
		l16.947,16.655l-16.381,16.668l26.707,56.267l121.711-123.84L-1363.428,286.579z"/>
	<path fill="#1C81A8" d="M-1767.33,220.794c-23.807-24.298-57.85-32.486-88.555-24.43l56.631,57.8
		c4.008,4.091-13.112,51.246-13.112,51.246s-47.495,16.153-51.503,12.062l-56.631-57.8c-8.682,30.534-1.192,64.738,22.615,89.036
		c25.148,25.667,61.718,33.354,93.711,22.91l270.259,275.84l0.503-0.492c16.552,11.87,38.943,11.193,53.084-2.662
		c14.141-13.855,15.275-36.228,3.746-53.018l0.503-0.492l-270.259-275.84C-1735.244,283.181-1742.182,246.461-1767.33,220.794z
		 M-1486.087,624.401l-14.024,13.74l-18.911-5.275l-4.887-19.015l14.024-13.74l18.911,5.275L-1486.087,624.401z"/>
</g>
<g>
	<circle fill="#4F9DBB" cx="-613.042" cy="416.544" r="436.544"/>
	<g>
		<path fill="#79B3C9" d="M-721.757,622.763c-0.08-0.89-8.505-90.421-46.345-158.556c-1.927-3.469-11.866-15.708-58.885-27.573
			c-27.224-6.869-52.529-9.9-52.781-9.93l3.518-29.793c1.11,0.131,27.512,3.293,56.604,10.635
			c42.566,10.741,68.005,24.51,77.771,42.096c40.991,73.808,49.65,166.546,49.999,170.458L-721.757,622.763z"/>
		<path fill="#79B3C9" d="M-540.421,625.075l-29.102-7.287c1.24-4.952,30.629-121.76,53.01-163.308
			c14.89-27.641,48.662-45.692,100.38-53.652c36.374-5.599,68.468-4.069,69.815-4l-1.5,29.962c-0.002,0-0.005,0-0.008,0l0,0
			c-0.634-0.03-30.979-1.409-64.204,3.761c-28.64,4.456-65.432,14.694-78.071,38.158
			C-510.722,506.988-540.126,623.898-540.421,625.075z"/>
		<path fill="#1C81A8" d="M-878.009,219.652c0,0,112.673,35.811,265.523,34.064c158.168-1.808,265.405-34.064,265.405-34.064
			l0.009,192.155c0,0-122.171-6.114-156.235,49.786c-34.064,55.9-51.666,159.838-51.666,159.838s-12.968,15.291-74.982,14.848
			c-64.726-0.462-76.862-14.848-76.862-14.848s-16.595-117.04-45.418-160.711c-28.823-43.672-125.774-48.912-125.774-48.912V219.652
			z"/>
		<path fill="#79B3C9" d="M-610.768,268.719c-0.591,0-1.168-0.001-1.758-0.002c-88.565-0.238-257.997-32.938-265.294-34.33
			l-0.189-37.588c1.76,0.335,179.795,41.687,265.563,41.918c0.544,0.001,1.099,0.002,1.643,0.002
			c116.883,0,263.059-36.916,264.485-37.253v37.333C-352.279,240.212-490.353,268.719-610.768,268.719z"/>
		<path fill="#79B3C9" d="M-523.902,506.457c-2.069-2.937-5.196-7.376-26.692-127.543c-10.46-58.469-20.254-116.562-20.352-117.143
			l17.75-2.99c14.481,85.958,39.365,226.614,44.487,238.111c-0.006-0.013-0.151-0.337-0.479-0.8L-523.902,506.457z"/>
		<path fill="#79B3C9" d="M-714.036,604.665l-0.094-18c-2.721,0.015-4.401,1.484-4.776,1.997
			c2.423-3.323,11.237-25.785,22.964-175.261c6.335-80.762,10.415-159.362,10.455-160.146l17.977,0.928
			c-0.044,0.855-4.494,86.569-11.328,171.194c-4.021,49.798-8.072,89.517-12.041,118.054c-2.389,17.174-4.791,30.545-7.141,39.739
			C-700.672,593.543-704.313,604.614-714.036,604.665z"/>
		<path fill="#79B3C9" d="M-765.882,446.148c0.014-0.012-15.776-7.186-15.776-7.186c1.259-6.199,6.723-8.933,21.326-16.24
			c20.482-10.249,58.609-29.326,68.114-54.426l16.834,6.375c-11.996,31.676-52.621,52.003-76.894,64.148
			C-757.968,441.667-764.416,444.894-765.882,446.148z"/>
	</g>
</g>
<g>
	<circle fill="#4F9DBB" cx="436.544" cy="436.544" r="436.544"/>
	<g>
		<path fill="#79B3C9" d="M734.208,266.284c0,6.358-5.165,11.513-11.536,11.513H150.415c-6.371,0-11.536-5.155-11.536-11.513
			v-32.927c0-6.358,5.165-11.513,11.536-11.513h572.257c6.371,0,11.536,5.155,11.536,11.513V266.284z"/>
		<circle fill="#1C81A8" cx="643.564" cy="249.82" r="7.374"/>
		<circle fill="#1C81A8" cx="672.917" cy="249.82" r="7.374"/>
		<circle fill="#1C81A8" cx="702.27" cy="249.82" r="7.374"/>
		<rect x="138.88" y="269.718" fill="#64A7C1" width="595.328" height="381.525"/>
		<rect x="165.854" y="310.327" fill="#1C81A8" width="543.79" height="300.307"/>
		<g>
			<rect x="185.439" y="337.396" fill="#79B3C9" width="354.317" height="24.317"/>
			<rect x="185.438" y="381.766" fill="#79B3C9" width="200.617" height="24.317"/>
			<rect x="185.438" y="470.507" fill="#79B3C9" width="289.478" height="24.317"/>
			<rect x="185.438" y="559.248" fill="#79B3C9" width="289.478" height="24.317"/>
			<rect x="185.438" y="514.878" fill="#79B3C9" width="262.106" height="24.317"/>
			<rect x="185.439" y="426.137" fill="#79B3C9" width="338.107" height="24.317"/>
		</g>
	</g>
</g>
</svg>
