<?xml version="1.0" encoding="utf-8"?>
<!-- Generator: Adobe Illustrator 18.0.0, SVG Export Plug-In . SVG Version: 6.00 Build 0)  -->
<!DOCTYPE svg PUBLIC "-//W3C//DTD SVG 1.1//EN" "http://www.w3.org/Graphics/SVG/1.1/DTD/svg11.dtd">
<svg version="1.1" id="Layer_1" xmlns="http://www.w3.org/2000/svg" xmlns:xlink="http://www.w3.org/1999/xlink" x="0px" y="0px"
	 viewBox="100 0 600 600" enable-background="new 100 0 600 600" xml:space="preserve">
<g>
	<circle fill="#62B1B9" cx="400" cy="300" r="300"/>
	<path fill="#AED5D7" d="M604.6,183c0,4.4-3.5,7.9-7.9,7.9H203.4c-4.4,0-7.9-3.5-7.9-7.9v-22.6c0-4.4,3.5-7.9,7.9-7.9h393.3
		c4.4,0,7.9,3.5,7.9,7.9V183z"/>
	<circle fill="#279AA0" cx="542.3" cy="171.7" r="5.1"/>
	<circle fill="#279AA0" cx="562.4" cy="171.7" r="5.1"/>
	<circle fill="#279AA0" cx="582.6" cy="171.7" r="5.1"/>
	<rect x="195.4" y="185.4" fill="#CFE5E4" width="409.1" height="262.2"/>
	<rect x="214" y="213.3" fill="#279AA0" width="373.7" height="206.4"/>
	<g>
		<rect x="227.4" y="231.9" fill="#AED5D7" width="243.5" height="16.7"/>
		<rect x="227.4" y="262.4" fill="#AED5D7" width="137.9" height="16.7"/>
		<rect x="227.4" y="323.3" fill="#AED5D7" width="198.9" height="16.7"/>
		<rect x="227.4" y="384.3" fill="#AED5D7" width="198.9" height="16.7"/>
		<rect x="227.4" y="353.8" fill="#AED5D7" width="180.1" height="16.7"/>
		<rect x="227.4" y="292.8" fill="#AED5D7" width="232.4" height="16.7"/>
	</g>
</g>
</svg>
