<?xml version="1.0" encoding="utf-8"?>
<!-- Generator: Adobe Illustrator 18.0.0, SVG Export Plug-In . SVG Version: 6.00 Build 0)  -->
<!DOCTYPE svg PUBLIC "-//W3C//DTD SVG 1.1//EN" "http://www.w3.org/Graphics/SVG/1.1/DTD/svg11.dtd">
<svg version="1.1" id="Layer_1" xmlns="http://www.w3.org/2000/svg" xmlns:xlink="http://www.w3.org/1999/xlink" x="0px" y="0px"
	 viewBox="-1547.7 926.9 600 600" enable-background="new -1547.7 926.9 600 600" xml:space="preserve">
<g>
	<circle fill="#62B1B9" cx="-1247.7" cy="1226.9" r="300"/>
	<path fill="#279AA0" d="M-1062.4,1138.3l-11.3,11.5l-11.6-11.4l5.1-5.2l-68.1-66.9l-3.2,3.3c-36.2-31.8-122.2-18.7-122.2-18.7
		s75.3,31.7,76.6,65.1l-1.9,1.9l20,19.7l-62.6,63.7l-7.8-7.7l-166.4,169.3l43.7,43l166.4-169.3l-7.8-7.7l62.6-63.7l20,19.7l5.1-5.2
		l11.6,11.4l-11.3,11.5l18.4,38.7l83.6-85.1L-1062.4,1138.3z"/>
	<path fill="#279AA0" d="M-1340,1087c-16.4-16.7-39.8-22.3-60.9-16.8l38.9,39.7c2.8,2.8-9,35.2-9,35.2s-32.6,11.1-35.4,8.3
		l-38.9-39.7c-6,21-0.8,44.5,15.5,61.2c17.3,17.6,42.4,22.9,64.4,15.7l185.7,189.6l0.3-0.3c11.4,8.2,26.8,7.7,36.5-1.8
		c9.7-9.5,10.5-24.9,2.6-36.4l0.3-0.3l-185.7-189.6C-1318,1129.9-1322.7,1104.7-1340,1087z M-1146.7,1364.4l-9.6,9.4l-13-3.6
		l-3.4-13.1l9.6-9.4l13,3.6L-1146.7,1364.4z"/>
</g>
</svg>
