<?xml version="1.0" encoding="utf-8"?>
<!-- Generator: Adobe Illustrator 17.1.0, SVG Export Plug-In . SVG Version: 6.00 Build 0)  -->
<!DOCTYPE svg PUBLIC "-//W3C//DTD SVG 1.1//EN" "http://www.w3.org/Graphics/SVG/1.1/DTD/svg11.dtd">
<svg version="1.1" id="Layer_1" xmlns="http://www.w3.org/2000/svg" xmlns:xlink="http://www.w3.org/1999/xlink" x="0px" y="0px"
	 viewBox="0 0 873.087 873.087" enable-background="new 0 0 873.087 873.087" xml:space="preserve">
<g>
	<circle fill="#4F9DBB" cx="436.544" cy="436.544" r="436.544"/>
	<g>
		<path fill="#79B3C9" d="M734.208,266.284c0,6.358-5.165,11.513-11.536,11.513H150.415c-6.371,0-11.536-5.155-11.536-11.513
			v-32.927c0-6.358,5.165-11.513,11.536-11.513h572.257c6.371,0,11.536,5.155,11.536,11.513V266.284z"/>
		<circle fill="#1C81A8" cx="643.564" cy="249.82" r="7.374"/>
		<circle fill="#1C81A8" cx="672.917" cy="249.82" r="7.374"/>
		<circle fill="#1C81A8" cx="702.27" cy="249.82" r="7.374"/>
		<rect x="138.88" y="269.718" fill="#64A7C1" width="595.328" height="381.525"/>
		<rect x="165.854" y="310.327" fill="#1C81A8" width="543.79" height="300.307"/>
		<g>
			<rect x="185.439" y="337.396" fill="#79B3C9" width="354.317" height="24.317"/>
			<rect x="185.438" y="381.766" fill="#79B3C9" width="200.617" height="24.317"/>
			<rect x="185.438" y="470.507" fill="#79B3C9" width="289.478" height="24.317"/>
			<rect x="185.438" y="559.248" fill="#79B3C9" width="289.478" height="24.317"/>
			<rect x="185.438" y="514.878" fill="#79B3C9" width="262.106" height="24.317"/>
			<rect x="185.439" y="426.137" fill="#79B3C9" width="338.107" height="24.317"/>
		</g>
	</g>
</g>
</svg>
