<?xml version="1.0" encoding="utf-8"?>
<!-- Generator: Adobe Illustrator 18.0.0, SVG Export Plug-In . SVG Version: 6.00 Build 0)  -->
<!DOCTYPE svg PUBLIC "-//W3C//DTD SVG 1.1//EN" "http://www.w3.org/Graphics/SVG/1.1/DTD/svg11.dtd">
<svg version="1.1" id="Layer_1" xmlns="http://www.w3.org/2000/svg" xmlns:xlink="http://www.w3.org/1999/xlink" x="0px" y="0px"
	 viewBox="0 0 800 600" enable-background="new 0 0 800 600" xml:space="preserve">
<g display="none">
	<path display="inline" fill="#FFFFFF" d="M-2064.3,141.1c-9.2,0-17.8-3.6-24.3-10.1c-6.5-6.5-10.1-15.1-10.1-24.3
		s3.6-17.8,10.1-24.3c6.5-6.5,15.1-10.1,24.3-10.1s17.8,3.6,24.3,10.1c6.5,6.5,10.1,15.1,10.1,24.3s-3.6,17.8-10.1,24.3
		C-2046.5,137.5-2055.1,141.1-2064.3,141.1z M-2064.3,73.2c-9,0-17.4,3.5-23.7,9.8c-6.3,6.3-9.8,14.8-9.8,23.7s3.5,17.4,9.8,23.7
		c6.3,6.3,14.8,9.8,23.7,9.8c9,0,17.4-3.5,23.7-9.8c6.3-6.3,9.8-14.8,9.8-23.7s-3.5-17.4-9.8-23.7
		C-2046.9,76.7-2055.4,73.2-2064.3,73.2z M-2063.9,130.8V105c0-0.2-0.2-0.4-0.4-0.4c-0.2,0-0.4,0.2-0.4,0.4v25.8
		c0,0.2,0.2,0.4,0.4,0.4C-2064.1,131.2-2063.9,131-2063.9,130.8z M-2056.6,122.9c0.1-0.2,0.1-0.4,0-0.6c-0.2-0.1-0.4-0.1-0.6,0
		l-7.2,8l-7.2-8c-0.1-0.2-0.4-0.2-0.6,0c-0.2,0.1-0.2,0.4,0,0.6l7.4,8.3h0.6L-2056.6,122.9z M-2072.8,88.4h-2.3
		c-0.2,0-0.4-0.2-0.4-0.4c0-0.2,0.2-0.4,0.4-0.4h5.5c0.2,0,0.4,0.2,0.4,0.4c0,0.2-0.2,0.4-0.4,0.4h-2.3v6.7c0,0.2-0.2,0.5-0.5,0.5
		c-0.2,0-0.5-0.2-0.5-0.5L-2072.8,88.4L-2072.8,88.4z M-2069,94.9l3.2-7c0.1-0.2,0.3-0.4,0.6-0.4h0c0.3,0,0.5,0.1,0.6,0.4l3.2,7
		c0,0.1,0.1,0.2,0.1,0.2c0,0.2-0.2,0.4-0.4,0.4c-0.2,0-0.4-0.1-0.4-0.3l-0.8-1.8h-4.3l-0.8,1.8c-0.1,0.2-0.2,0.3-0.4,0.3
		c-0.2,0-0.4-0.2-0.4-0.4C-2069.1,95.1-2069.1,95-2069,94.9z M-2063.4,92.6l-1.8-4l-1.8,4H-2063.4z M-2059.7,88
		c0-0.2,0.2-0.5,0.4-0.5h3c1,0,1.8,0.3,2.2,0.8c0.4,0.4,0.6,0.9,0.6,1.6v0c0,1.3-0.9,2.1-2.1,2.3l2,2.5c0.1,0.1,0.1,0.2,0.1,0.3
		c0,0.2-0.2,0.4-0.5,0.4c-0.2,0-0.3-0.1-0.4-0.2l-2.2-2.9h-2.3v2.7c0,0.2-0.2,0.5-0.5,0.5c-0.2,0-0.4-0.2-0.4-0.5L-2059.7,88
		L-2059.7,88z M-2056.4,91.6c1.2,0,2-0.6,2-1.6v0c0-1-0.7-1.6-2-1.6h-2.4v3.2L-2056.4,91.6L-2056.4,91.6z"/>
	<path display="inline" fill="#FFFFFF" d="M-1956.5,141.1c-9.2,0-17.8-3.6-24.3-10.1c-6.5-6.5-10.1-15.1-10.1-24.3
		s3.6-17.8,10.1-24.3c6.5-6.5,15.1-10.1,24.3-10.1c9.2,0,17.8,3.6,24.3,10.1c6.5,6.5,10.1,15.1,10.1,24.3s-3.6,17.8-10.1,24.3
		C-1938.7,137.5-1947.4,141.1-1956.5,141.1z M-1956.5,73.2c-9,0-17.4,3.5-23.7,9.8c-6.3,6.3-9.8,14.8-9.8,23.7s3.5,17.4,9.8,23.7
		c6.3,6.3,14.8,9.8,23.7,9.8c9,0,17.4-3.5,23.7-9.8c6.3-6.3,9.8-14.8,9.8-23.7s-3.5-17.4-9.8-23.7
		C-1939.2,76.7-1947.6,73.2-1956.5,73.2z M-1956.1,130.8V105c0-0.2-0.2-0.4-0.4-0.4c-0.2,0-0.4,0.2-0.4,0.4v25.8
		c0,0.2,0.2,0.4,0.4,0.4C-1956.3,131.2-1956.1,131-1956.1,130.8z M-1948.8,122.9c0.1-0.2,0.1-0.4,0-0.6c-0.2-0.1-0.4-0.1-0.6,0
		l-7.2,8l-7.2-8c-0.1-0.2-0.4-0.2-0.6,0c-0.2,0.1-0.2,0.4,0,0.6l7.4,8.3h0.6L-1948.8,122.9z M-1965.1,95.1L-1965.1,95.1
		c0-0.2,0.1-0.3,0.2-0.4l5-6.3h-4.6c-0.2,0-0.4-0.2-0.4-0.4c0-0.2,0.2-0.4,0.4-0.4h5.4c0.2,0,0.4,0.2,0.4,0.4v0
		c0,0.2-0.1,0.3-0.2,0.4l-5,6.3h4.8c0.2,0,0.4,0.2,0.4,0.4c0,0.2-0.2,0.4-0.4,0.4h-5.6C-1964.9,95.5-1965.1,95.3-1965.1,95.1z
		 M-1956.9,88c0-0.2,0.2-0.5,0.4-0.5c0.2,0,0.5,0.2,0.5,0.5v7.1c0,0.2-0.2,0.5-0.5,0.5c-0.2,0-0.4-0.2-0.4-0.5V88z M-1953.6,88
		c0-0.2,0.2-0.5,0.4-0.5h2.5c1.8,0,3,0.9,3,2.5v0c0,1.7-1.4,2.6-3.1,2.6h-1.9v2.4c0,0.2-0.2,0.5-0.5,0.5c-0.2,0-0.4-0.2-0.4-0.5V88z
		 M-1950.8,91.9c1.3,0,2.2-0.7,2.2-1.7v0c0-1.1-0.8-1.7-2.1-1.7h-2v3.5L-1950.8,91.9L-1950.8,91.9z"/>
</g>
<g>
	<circle fill="#62B1B9" cx="-1247.7" cy="1226.9" r="300"/>
	<path fill="#279AA0" d="M-1062.4,1138.3l-11.3,11.5l-11.6-11.4l5.1-5.2l-68.1-66.9l-3.2,3.3c-36.2-31.8-122.2-18.7-122.2-18.7
		s75.3,31.7,76.6,65.1l-1.9,1.9l20,19.7l-62.6,63.7l-7.8-7.7l-166.4,169.3l43.7,43l166.4-169.3l-7.8-7.7l62.6-63.7l20,19.7l5.1-5.2
		l11.6,11.4l-11.3,11.5l18.4,38.7l83.6-85.1L-1062.4,1138.3z"/>
	<path fill="#279AA0" d="M-1340,1087c-16.4-16.7-39.8-22.3-60.9-16.8l38.9,39.7c2.8,2.8-9,35.2-9,35.2s-32.6,11.1-35.4,8.3
		l-38.9-39.7c-6,21-0.8,44.5,15.5,61.2c17.3,17.6,42.4,22.9,64.4,15.7l185.7,189.6l0.3-0.3c11.4,8.2,26.8,7.7,36.5-1.8
		c9.7-9.5,10.5-24.9,2.6-36.4l0.3-0.3l-185.7-189.6C-1318,1129.9-1322.7,1104.7-1340,1087z M-1146.7,1364.4l-9.6,9.4l-13-3.6
		l-3.4-13.1l9.6-9.4l13,3.6L-1146.7,1364.4z"/>
</g>
<g>
	<circle fill="#62B1B9" cx="-400.7" cy="943" r="300"/>
	<g>
		<path fill="#AED5D7" d="M-475.4,1084.7c-0.1-0.6-5.8-62.1-31.8-109c-1.3-2.4-8.2-10.8-40.5-18.9c-18.7-4.7-36.1-6.8-36.3-6.8
			l2.4-20.5c0.8,0.1,18.9,2.3,38.9,7.3c29.3,7.4,46.7,16.8,53.4,28.9c28.2,50.7,34.1,114.5,34.4,117.1L-475.4,1084.7z"/>
		<path fill="#AED5D7" d="M-350.7,1086.3l-20-5c0.9-3.4,21-83.7,36.4-112.2c10.2-19,33.4-31.4,69-36.9c25-3.8,47.1-2.8,48-2.7
			l-1,20.6c0,0,0,0,0,0l0,0c-0.4,0-21.3-1-44.1,2.6c-19.7,3.1-45,10.1-53.7,26.2C-330.3,1005.1-350.5,1085.5-350.7,1086.3z"/>
		<path fill="#279AA0" d="M-582.7,807.7c0,0,77.4,24.6,182.5,23.4c108.7-1.2,182.4-23.4,182.4-23.4l0,132.1c0,0-84-4.2-107.4,34.2
			c-23.4,38.4-35.5,109.8-35.5,109.8s-8.9,10.5-51.5,10.2c-44.5-0.3-52.8-10.2-52.8-10.2s-11.4-80.4-31.2-110.4
			c-19.8-30-86.4-33.6-86.4-33.6V807.7z"/>
		<path fill="#AED5D7" d="M-399.1,841.4c-0.4,0-0.8,0-1.2,0c-60.9-0.2-177.3-22.6-182.3-23.6l-0.1-25.8
			c1.2,0.2,123.6,28.6,182.5,28.8c0.4,0,0.8,0,1.1,0c80.3,0,180.8-25.4,181.8-25.6v25.7C-221.5,821.8-316.3,841.4-399.1,841.4z"/>
		<path fill="#AED5D7" d="M-339.4,1004.8c-1.4-2-3.6-5.1-18.3-87.6c-7.2-40.2-13.9-80.1-14-80.5l12.2-2.1
			c10,59.1,27.1,155.7,30.6,163.6c0,0-0.1-0.2-0.3-0.5L-339.4,1004.8z"/>
		<path fill="#AED5D7" d="M-470.1,1072.3l-0.1-12.4c-1.9,0-3,1-3.3,1.4c1.7-2.3,7.7-17.7,15.8-120.4c4.4-55.5,7.2-109.5,7.2-110.1
			l12.4,0.6c0,0.6-3.1,59.5-7.8,117.6c-2.8,34.2-5.5,61.5-8.3,81.1c-1.6,11.8-3.3,21-4.9,27.3
			C-460.9,1064.6-463.4,1072.2-470.1,1072.3z"/>
		<path fill="#AED5D7" d="M-505.7,963.3c0,0-10.8-4.9-10.8-4.9c0.9-4.3,4.6-6.1,14.7-11.2c14.1-7,40.3-20.2,46.8-37.4l11.6,4.4
			c-8.2,21.8-36.2,35.7-52.8,44.1C-500.2,960.2-504.7,962.5-505.7,963.3z"/>
	</g>
</g>
<g>
	<circle fill="#62B1B9" cx="400" cy="300" r="300"/>
	<path fill="#AED5D7" d="M604.6,183c0,4.4-3.5,7.9-7.9,7.9H203.4c-4.4,0-7.9-3.5-7.9-7.9v-22.6c0-4.4,3.5-7.9,7.9-7.9h393.3
		c4.4,0,7.9,3.5,7.9,7.9V183z"/>
	<circle fill="#279AA0" cx="542.3" cy="171.7" r="5.1"/>
	<circle fill="#279AA0" cx="562.4" cy="171.7" r="5.1"/>
	<circle fill="#279AA0" cx="582.6" cy="171.7" r="5.1"/>
	<rect x="195.4" y="185.4" fill="#CFE5E4" width="409.1" height="262.2"/>
	<rect x="214" y="213.3" fill="#279AA0" width="373.7" height="206.4"/>
	<g>
		<rect x="227.4" y="231.9" fill="#AED5D7" width="243.5" height="16.7"/>
		<rect x="227.4" y="262.4" fill="#AED5D7" width="137.9" height="16.7"/>
		<rect x="227.4" y="323.3" fill="#AED5D7" width="198.9" height="16.7"/>
		<rect x="227.4" y="384.3" fill="#AED5D7" width="198.9" height="16.7"/>
		<rect x="227.4" y="353.8" fill="#AED5D7" width="180.1" height="16.7"/>
		<rect x="227.4" y="292.8" fill="#AED5D7" width="232.4" height="16.7"/>
	</g>
</g>
</svg>
