<?xml version="1.0" encoding="utf-8"?>
<!-- Generator: Adobe Illustrator 17.1.0, SVG Export Plug-In . SVG Version: 6.00 Build 0)  -->
<!DOCTYPE svg PUBLIC "-//W3C//DTD SVG 1.1//EN" "http://www.w3.org/Graphics/SVG/1.1/DTD/svg11.dtd">
<svg version="1.1" id="Layer_1" xmlns="http://www.w3.org/2000/svg" xmlns:xlink="http://www.w3.org/1999/xlink" x="0px" y="0px"
	 viewBox="0 0 873.087 873.087" enable-background="new 0 0 873.087 873.087" xml:space="preserve">
<g>
	<circle fill="#4F9DBB" cx="436.544" cy="436.544" r="436.544"/>
	<path fill="#1C81A8" d="M706.158,306.579l-16.381,16.668l-16.947-16.655l7.413-7.543l-99.072-97.369l-4.698,4.779
		c-52.663-46.325-177.798-27.199-177.798-27.199s109.642,46.173,111.451,94.707l-2.716,2.764l29.108,28.608l-91.119,92.712
		l-11.393-11.197L191.903,633.193l63.641,62.547l242.105-246.339l-11.393-11.197l91.119-92.712l29.108,28.608l7.413-7.543
		l16.947,16.655l-16.381,16.668l26.707,56.267l121.711-123.84L706.158,306.579z"/>
	<path fill="#1C81A8" d="M302.256,240.794c-23.807-24.298-57.85-32.486-88.555-24.43l56.631,57.8
		c4.009,4.091-13.112,51.246-13.112,51.246s-47.495,16.153-51.503,12.062l-56.631-57.8c-8.682,30.534-1.192,64.738,22.615,89.036
		c25.148,25.667,61.718,33.354,93.711,22.91l270.259,275.84l0.503-0.492c16.552,11.87,38.943,11.193,53.084-2.662
		s15.275-36.228,3.746-53.018l0.503-0.492l-270.259-275.84C334.342,303.181,327.404,266.461,302.256,240.794z M583.499,644.401
		l-14.024,13.74l-18.911-5.275l-4.887-19.015l14.024-13.74l18.911,5.275L583.499,644.401z"/>
</g>
</svg>
