<?xml version="1.0" encoding="utf-8"?>
<!-- Generator: Adobe Illustrator 17.1.0, SVG Export Plug-In . SVG Version: 6.00 Build 0)  -->
<!DOCTYPE svg PUBLIC "-//W3C//DTD SVG 1.1//EN" "http://www.w3.org/Graphics/SVG/1.1/DTD/svg11.dtd">
<svg version="1.1" id="Layer_1" xmlns="http://www.w3.org/2000/svg" xmlns:xlink="http://www.w3.org/1999/xlink" x="0px" y="0px"
	 viewBox="0 0 873.087 873.087" enable-background="new 0 0 873.087 873.087" xml:space="preserve">
<g>
	<circle fill="#4F9DBB" cx="436.544" cy="436.544" r="436.544"/>
	<g>
		<path fill="#79B3C9" d="M327.829,642.763c-0.08-0.89-8.505-90.421-46.345-158.556c-1.927-3.469-11.866-15.708-58.885-27.573
			c-27.224-6.869-52.529-9.9-52.781-9.93l3.518-29.793c1.11,0.131,27.512,3.293,56.604,10.635
			c42.566,10.741,68.005,24.51,77.771,42.096c40.991,73.808,49.65,166.546,49.999,170.458L327.829,642.763z"/>
		<path fill="#79B3C9" d="M509.165,645.075l-29.102-7.287c1.24-4.952,30.629-121.76,53.01-163.308
			c14.89-27.641,48.662-45.692,100.38-53.652c36.374-5.599,68.468-4.069,69.815-4l-1.5,29.962c-0.002,0-0.005,0-0.008,0l0,0
			c-0.634-0.03-30.979-1.409-64.204,3.761c-28.64,4.456-65.432,14.694-78.071,38.158
			C538.864,526.988,509.46,643.898,509.165,645.075z"/>
		<path fill="#1C81A8" d="M171.577,239.652c0,0,112.673,35.811,265.523,34.064c158.168-1.808,265.405-34.064,265.405-34.064
			l0.009,192.155c0,0-122.171-6.114-156.235,49.786s-51.666,159.838-51.666,159.838s-12.968,15.291-74.982,14.848
			c-64.726-0.462-76.862-14.848-76.862-14.848s-16.595-117.04-45.418-160.711c-28.823-43.672-125.774-48.912-125.774-48.912V239.652
			z"/>
		<path fill="#79B3C9" d="M438.819,288.719c-0.591,0-1.168-0.001-1.758-0.002c-88.565-0.238-257.997-32.938-265.294-34.33
			l-0.189-37.588c1.76,0.335,179.795,41.687,265.563,41.918c0.544,0.001,1.099,0.002,1.643,0.002
			c116.883,0,263.059-36.916,264.485-37.253v37.333C697.307,260.212,559.233,288.719,438.819,288.719z"/>
		<path fill="#79B3C9" d="M525.684,526.457c-2.069-2.937-5.196-7.376-26.692-127.543c-10.46-58.469-20.254-116.562-20.352-117.143
			l17.75-2.99c14.481,85.958,39.365,226.614,44.487,238.111c-0.006-0.013-0.151-0.337-0.479-0.8L525.684,526.457z"/>
		<path fill="#79B3C9" d="M335.55,624.665l-0.094-18c-2.721,0.015-4.401,1.484-4.776,1.997
			c2.423-3.323,11.237-25.785,22.964-175.261c6.335-80.762,10.415-159.362,10.455-160.146l17.977,0.928
			c-0.044,0.855-4.494,86.569-11.328,171.194c-4.021,49.798-8.072,89.517-12.041,118.054c-2.389,17.174-4.791,30.545-7.141,39.739
			C348.914,613.543,345.273,624.614,335.55,624.665z"/>
		<path fill="#79B3C9" d="M283.704,466.148c0.014-0.012-15.776-7.186-15.776-7.186c1.259-6.199,6.723-8.933,21.326-16.24
			c20.482-10.249,58.609-29.326,68.114-54.426l16.834,6.375c-11.996,31.676-52.621,52.003-76.894,64.148
			C291.618,461.667,285.17,464.894,283.704,466.148z"/>
	</g>
</g>
</svg>
