<?xml version="1.0" encoding="utf-8"?>
<!-- Generator: Adobe Illustrator 18.0.0, SVG Export Plug-In . SVG Version: 6.00 Build 0)  -->
<!DOCTYPE svg PUBLIC "-//W3C//DTD SVG 1.1//EN" "http://www.w3.org/Graphics/SVG/1.1/DTD/svg11.dtd">
<svg version="1.1" id="Layer_1" xmlns="http://www.w3.org/2000/svg" xmlns:xlink="http://www.w3.org/1999/xlink" x="0px" y="0px"
	 viewBox="-700.7 643 600 600" enable-background="new -700.7 643 600 600" xml:space="preserve">
<g>
	<circle fill="#62B1B9" cx="-400.7" cy="943" r="300"/>
	<g>
		<path fill="#AED5D7" d="M-475.4,1084.7c-0.1-0.6-5.8-62.1-31.8-109c-1.3-2.4-8.2-10.8-40.5-18.9c-18.7-4.7-36.1-6.8-36.3-6.8
			l2.4-20.5c0.8,0.1,18.9,2.3,38.9,7.3c29.3,7.4,46.7,16.8,53.4,28.9c28.2,50.7,34.1,114.5,34.4,117.1L-475.4,1084.7z"/>
		<path fill="#AED5D7" d="M-350.7,1086.3l-20-5c0.9-3.4,21-83.7,36.4-112.2c10.2-19,33.4-31.4,69-36.9c25-3.8,47.1-2.8,48-2.7
			l-1,20.6c0,0,0,0,0,0l0,0c-0.4,0-21.3-1-44.1,2.6c-19.7,3.1-45,10.1-53.7,26.2C-330.3,1005.1-350.5,1085.5-350.7,1086.3z"/>
		<path fill="#279AA0" d="M-582.7,807.7c0,0,77.4,24.6,182.5,23.4c108.7-1.2,182.4-23.4,182.4-23.4l0,132.1c0,0-84-4.2-107.4,34.2
			c-23.4,38.4-35.5,109.8-35.5,109.8s-8.9,10.5-51.5,10.2c-44.5-0.3-52.8-10.2-52.8-10.2s-11.4-80.4-31.2-110.4
			c-19.8-30-86.4-33.6-86.4-33.6V807.7z"/>
		<path fill="#AED5D7" d="M-399.1,841.4c-0.4,0-0.8,0-1.2,0c-60.9-0.2-177.3-22.6-182.3-23.6l-0.1-25.8
			c1.2,0.2,123.6,28.6,182.5,28.8c0.4,0,0.8,0,1.1,0c80.3,0,180.8-25.4,181.8-25.6v25.7C-221.5,821.8-316.3,841.4-399.1,841.4z"/>
		<path fill="#AED5D7" d="M-339.4,1004.8c-1.4-2-3.6-5.1-18.3-87.6c-7.2-40.2-13.9-80.1-14-80.5l12.2-2.1
			c10,59.1,27.1,155.7,30.6,163.6c0,0-0.1-0.2-0.3-0.5L-339.4,1004.8z"/>
		<path fill="#AED5D7" d="M-470.1,1072.3l-0.1-12.4c-1.9,0-3,1-3.3,1.4c1.7-2.3,7.7-17.7,15.8-120.4c4.4-55.5,7.2-109.5,7.2-110.1
			l12.4,0.6c0,0.6-3.1,59.5-7.8,117.6c-2.8,34.2-5.5,61.5-8.3,81.1c-1.6,11.8-3.3,21-4.9,27.3
			C-460.9,1064.6-463.4,1072.2-470.1,1072.3z"/>
		<path fill="#AED5D7" d="M-505.7,963.3c0,0-10.8-4.9-10.8-4.9c0.9-4.3,4.6-6.1,14.7-11.2c14.1-7,40.3-20.2,46.8-37.4l11.6,4.4
			c-8.2,21.8-36.2,35.7-52.8,44.1C-500.2,960.2-504.7,962.5-505.7,963.3z"/>
	</g>
</g>
</svg>
